<?xml version="1.0" encoding="utf-8"?>
<!-- Generator: Adobe Illustrator 25.4.1, SVG Export Plug-In . SVG Version: 6.00 Build 0)  -->
<svg version="1.1" id="Layer_1" xmlns="http://www.w3.org/2000/svg" xmlns:xlink="http://www.w3.org/1999/xlink" x="0px" y="0px"
	 viewBox="0 0 48 48" style="enable-background:new 0 0 48 48;" xml:space="preserve">
<style type="text/css">
	.st0{fill:#2F4858;}
</style>
<path class="st0" d="M11.3,40c-0.9,0-1.7-0.3-2.3-1c-0.6-0.6-1-1.4-1-2.3c0-0.9,0.3-1.7,0.9-2.3s1.4-1,2.3-1s1.7,0.3,2.4,1
	c0.6,0.6,0.9,1.4,0.9,2.3s-0.3,1.7-0.9,2.3C13,39.7,12.2,40,11.3,40z M24,40c-0.9,0-1.7-0.3-2.4-1c-0.6-0.6-1-1.4-1-2.3
	c0-0.9,0.3-1.7,1-2.3c0.6-0.6,1.4-1,2.4-1s1.7,0.3,2.4,1c0.6,0.6,1,1.4,1,2.3s-0.3,1.7-1,2.3C25.7,39.7,24.9,40,24,40z M36.7,40
	c-0.9,0-1.7-0.3-2.3-1c-0.6-0.6-1-1.4-1-2.3c0-0.9,0.3-1.7,1-2.3c0.6-0.6,1.4-1,2.3-1s1.7,0.3,2.3,1c0.6,0.6,1,1.4,1,2.3
	s-0.3,1.7-1,2.3C38.4,39.7,37.6,40,36.7,40z M11.3,27.3c-0.9,0-1.7-0.3-2.3-1c-0.6-0.6-1-1.4-1-2.3s0.3-1.7,0.9-2.4
	c0.6-0.6,1.4-1,2.3-1s1.7,0.3,2.4,1c0.6,0.6,0.9,1.4,0.9,2.4s-0.3,1.7-0.9,2.4C13,27,12.2,27.3,11.3,27.3z M24,27.3
	c-0.9,0-1.7-0.3-2.4-1c-0.6-0.6-1-1.4-1-2.4c0-0.9,0.3-1.7,1-2.4c0.6-0.6,1.4-1,2.4-1s1.7,0.3,2.4,1c0.6,0.6,1,1.4,1,2.4
	c0,0.9-0.3,1.7-1,2.4C25.7,27,24.9,27.3,24,27.3z M36.7,27.3c-0.9,0-1.7-0.3-2.3-1s-1-1.4-1-2.4c0-0.9,0.3-1.7,1-2.4
	c0.6-0.6,1.4-1,2.3-1s1.7,0.3,2.3,1c0.6,0.6,1,1.4,1,2.4c0,0.9-0.3,1.7-1,2.4C38.4,27,37.6,27.3,36.7,27.3z M11.3,14.6
	c-0.9,0-1.7-0.3-2.3-0.9c-0.6-0.6-1-1.4-1-2.4C8,10.4,8.3,9.6,8.9,9c0.6-0.6,1.4-1,2.4-1c0.9,0,1.7,0.3,2.3,0.9s0.9,1.4,0.9,2.3
	s-0.3,1.7-0.9,2.4C13,14.3,12.2,14.6,11.3,14.6z M24,14.6c-0.9,0-1.7-0.3-2.4-0.9c-0.6-0.6-1-1.4-1-2.3s0.3-1.7,1-2.4
	c0.6-0.6,1.4-1,2.4-1s1.7,0.3,2.4,0.9c0.6,0.6,1,1.4,1,2.3s-0.3,1.7-1,2.4C25.7,14.3,24.9,14.6,24,14.6z M36.7,14.6
	c-0.9,0-1.7-0.3-2.3-0.9s-1-1.4-1-2.3s0.3-1.7,1-2.4s1.4-1,2.3-1s1.7,0.3,2.3,0.9c0.6,0.6,1,1.4,1,2.3s-0.3,1.7-1,2.4
	C38.4,14.3,37.6,14.6,36.7,14.6z"/>
</svg>
