<?xml version="1.0" encoding="utf-8"?>
<!-- Generator: Adobe Illustrator 25.4.1, SVG Export Plug-In . SVG Version: 6.00 Build 0)  -->
<svg version="1.1" id="Layer_1" xmlns="http://www.w3.org/2000/svg" xmlns:xlink="http://www.w3.org/1999/xlink" x="0px" y="0px"
	 viewBox="0 0 384 512" style="enable-background:new 0 0 384 512;" xml:space="preserve">
<style type="text/css">
	.st0{fill:#FFFFFF;}
</style>
<path class="st0" d="M192,0c-53,0-96,43-96,96v160c0,53,43,96,96,96s96-43,96-96V96C288,43,245,0,192,0z M64,216
	c0-13.3-10.7-24-24-24s-24,10.7-24,24v40c0,89.1,66.2,162.7,152,174.4V464h-48c-13.3,0-24,10.7-24,24s10.7,24,24,24h72h72
	c13.3,0,24-10.7,24-24s-10.7-24-24-24h-48v-33.6c85.8-11.7,152-85.3,152-174.4v-40c0-13.3-10.7-24-24-24s-24,10.7-24,24v40
	c0,70.7-57.3,128-128,128S64,326.7,64,256V216z"/>
</svg>
